<svg width="22" height="20" viewBox="0 0 22 20" fill="none" xmlns="http://www.w3.org/2000/svg">
<path d="M11.6535 0.638672H10.3465H0V14.7105V16.0175V18.1958H2.3485V20.0001L4.12255 19.3104L5.8966 20.0001V18.1958H22V16.0175V14.7105V0.638672H11.6535ZM11.6535 1.94565H20.693V14.7105H11.6535V1.94565ZM2.3485 16.8889H1.30698V16.0175H2.34846L2.3485 16.8889ZM4.58958 18.0897L4.12251 17.9081L3.65548 18.0897V16.0175H4.58958V18.0897ZM4.58962 14.7105H3.65548H2.3485H1.30698V1.94565H10.3465V14.7105H5.8966H4.58962ZM8.38604 16.8889H5.8966V16.0175H8.38604V16.8889ZM12.307 16.8889H9.69302V16.0175H10.3465H11.6535H12.307V16.8889H12.307ZM13.614 16.8889V16.0175H20.693V16.8888H13.614V16.8889Z" fill="#8BFBA3"/>
<path d="M9.00719 3.31787H2.64648V4.62485H9.00719V3.31787Z" fill="#8BFBA3"/>
<path d="M9.00719 5.49634H2.64648V6.80332H9.00719V5.49634Z" fill="#8BFBA3"/>
<path d="M9.00729 7.67456H7.29688V8.98154H9.00729V7.67456Z" fill="#8BFBA3"/>
<path d="M6.42541 7.67456H2.64648V8.98154H6.42541V7.67456Z" fill="#8BFBA3"/>
<path d="M14.7033 3.31787H12.9929V4.62485H14.7033V3.31787Z" fill="#8BFBA3"/>
<path d="M19.3534 3.31787H15.5745V4.62485H19.3534V3.31787Z" fill="#8BFBA3"/>
<path d="M4.3569 12.0312H2.64648V13.3382H4.3569V12.0312Z" fill="#8BFBA3"/>
<path d="M9.00696 12.0312H5.22803V13.3382H9.00696V12.0312Z" fill="#8BFBA3"/>
<path d="M9.00719 9.85278H2.64648V11.1598H9.00719V9.85278Z" fill="#8BFBA3"/>
<path d="M19.3536 5.49634H12.9929V6.80332H19.3536V5.49634Z" fill="#8BFBA3"/>
<path d="M19.3536 7.67456H12.9929V8.98154H19.3536V7.67456Z" fill="#8BFBA3"/>
<path d="M19.3536 9.85278H12.9929V11.1598H19.3536V9.85278Z" fill="#8BFBA3"/>
<path d="M17.1753 12.0312H12.9929V13.3382H17.1753V12.0312Z" fill="#8BFBA3"/>
</svg>
