<svg width="77" height="19" viewBox="0 0 77 19" fill="none" xmlns="http://www.w3.org/2000/svg">
<path d="M3.38672 15.3477V2.96094C3.38672 2.60938 3.26953 2.36719 3.03516 2.23438C2.91797 2.17188 2.80078 2.14453 2.68359 2.15234H2.26172V16.1562H2.68359C2.80078 16.1641 2.91797 16.1367 3.03516 16.0742C3.26953 15.9414 3.38672 15.6992 3.38672 15.3477ZM5.39062 2.65625L5.37891 15.6523C5.37891 15.8711 5.375 16.0586 5.36719 16.2148C5.34375 16.6289 5.28906 16.9609 5.20312 17.2109C4.97656 17.8516 4.46484 18.1719 3.66797 18.1719H0.292969V0.113281H3.72656C4.51562 0.113281 5.01562 0.4375 5.22656 1.08594C5.3125 1.33594 5.36328 1.66797 5.37891 2.08203C5.38672 2.23828 5.39062 2.42969 5.39062 2.65625ZM9.14062 16.4375C9.20312 16.3594 9.24609 16.2734 9.26953 16.1797C9.28516 16.125 9.29297 16.0742 9.29297 16.0273V10.3789L9.17578 10.4492L9.04688 10.5195C8.5625 10.7852 8.24219 11.1172 8.08594 11.5156C8 11.7109 7.96484 11.8828 7.98047 12.0312V16.0273C7.98047 16.207 8.04688 16.3594 8.17969 16.4844C8.30469 16.6094 8.45703 16.6719 8.63672 16.6719L8.76562 16.6602L8.80078 16.6484L8.87109 16.625L8.92969 16.6133L8.97656 16.5781L9.02344 16.543L9.07031 16.5078L9.11719 16.4609L9.14062 16.4375ZM6.76172 4.55469C7.28516 4.03906 7.91016 3.78125 8.63672 3.78125C9.37109 3.78125 9.99609 4.03906 10.5117 4.55469C11.0352 5.07812 11.2969 5.70312 11.2969 6.42969V18.1719H9.78516C9.41797 18.3516 9.03516 18.4414 8.63672 18.4414C8.23047 18.4414 7.84375 18.3516 7.47656 18.1719C7.03125 17.9531 6.67188 17.6328 6.39844 17.2109C6.125 16.7812 5.98828 16.3086 5.98828 15.793V11.5859C5.98828 11.4609 6 11.3281 6.02344 11.1875C6.11719 10.6172 6.40625 10.0977 6.89062 9.62891C7.07031 9.45703 7.27344 9.29297 7.5 9.13672C7.58594 9.07422 7.75781 8.96484 8.01562 8.80859L9.29297 8.08203V6.19531C9.29297 6.01562 9.23047 5.86328 9.10547 5.73828C8.97266 5.61328 8.81641 5.55078 8.63672 5.55078C8.45703 5.55078 8.30469 5.61328 8.17969 5.73828C8.04688 5.86328 7.98047 6.01562 7.98047 6.19531V8.42188H5.98828V6.42969C5.98828 5.70312 6.24609 5.07812 6.76172 4.55469ZM13.8633 4.34375L13.875 4.33203C13.8906 4.31641 13.9141 4.29688 13.9453 4.27344C14.0312 4.20312 14.125 4.13672 14.2266 4.07422C14.5625 3.87891 14.9297 3.78125 15.3281 3.78125C16.5781 3.78125 17.2031 4.66797 17.2031 6.44141V18.1719H15.1992V6.20703C15.1992 6.02734 15.1367 5.87109 15.0117 5.73828C14.8789 5.61328 14.7227 5.55078 14.543 5.55078C14.3633 5.55078 14.2109 5.61328 14.0859 5.73828C13.9531 5.87109 13.8867 6.02734 13.8867 6.20703V18.1719H11.8945V4.03906H13.8633V4.34375ZM19.7695 18.1719H17.8008V4.03906H19.7695V18.1719ZM19.7695 2.62109H17.8008V0.546875H19.7695V2.62109ZM22.3477 9.65234H23.6602V6.19531C23.6602 6.01562 23.5977 5.86328 23.4727 5.73828C23.3398 5.61328 23.1836 5.55078 23.0039 5.55078C22.8242 5.55078 22.6719 5.61328 22.5469 5.73828C22.4141 5.86328 22.3477 6.01562 22.3477 6.19531V9.65234ZM21.1289 4.55469C21.6523 4.03906 22.2773 3.78125 23.0039 3.78125C23.7383 3.78125 24.3633 4.03906 24.8789 4.55469C25.4023 5.07812 25.6641 5.70312 25.6641 6.42969V11.6211H22.3477V16.0273C22.3477 16.207 22.4141 16.3594 22.5469 16.4844C22.6719 16.6094 22.8242 16.6719 23.0039 16.6719C23.1836 16.6719 23.3398 16.6094 23.4727 16.4844C23.5977 16.3594 23.6602 16.207 23.6602 16.0273V12.4766H25.6641V15.793C25.6641 16.5195 25.4023 17.1445 24.8789 17.668C24.3633 18.1836 23.7383 18.4414 23.0039 18.4414C22.2773 18.4414 21.6523 18.1836 21.1289 17.668C20.6133 17.1445 20.3555 16.5195 20.3555 15.793V6.42969C20.3555 5.70312 20.6133 5.07812 21.1289 4.55469ZM28.2305 18.1719H26.2617V0.113281H28.2305V18.1719ZM36.4102 0.113281H38.4023V18.1719H36.4336V10.1094L35.4492 18.1719H33.9141L32.9648 10.2617V18.1719H30.9961V0.113281H32.9648L34.6875 9.54688L36.4102 0.113281ZM40.957 18.1719H38.9883V16.2031H40.957V18.1719ZM46.8164 15.3477V2.96094C46.8164 2.60938 46.6992 2.36719 46.4648 2.23438C46.3477 2.17188 46.2305 2.14453 46.1133 2.15234H45.6914V16.1562H46.1133C46.2305 16.1641 46.3477 16.1367 46.4648 16.0742C46.6992 15.9414 46.8164 15.6992 46.8164 15.3477ZM48.8203 2.65625L48.8086 15.6523C48.8086 15.8711 48.8047 16.0586 48.7969 16.2148C48.7734 16.6289 48.7188 16.9609 48.6328 17.2109C48.4062 17.8516 47.8945 18.1719 47.0977 18.1719H43.7227V0.113281H47.1562C47.9453 0.113281 48.4453 0.4375 48.6562 1.08594C48.7422 1.33594 48.793 1.66797 48.8086 2.08203C48.8164 2.23828 48.8203 2.42969 48.8203 2.65625ZM51.4102 6.19531V16.0273C51.4102 16.207 51.4766 16.3594 51.6094 16.4844C51.7344 16.6094 51.8867 16.6719 52.0664 16.6719C52.2461 16.6719 52.4023 16.6094 52.5352 16.4844C52.6602 16.3594 52.7227 16.207 52.7227 16.0273V6.19531C52.7227 6.01562 52.6602 5.86328 52.5352 5.73828C52.4023 5.61328 52.2461 5.55078 52.0664 5.55078C51.8867 5.55078 51.7344 5.61328 51.6094 5.73828C51.4766 5.86328 51.4102 6.01562 51.4102 6.19531ZM50.1914 4.55469C50.7148 4.03906 51.3398 3.78125 52.0664 3.78125C52.8008 3.78125 53.4258 4.03906 53.9414 4.55469C54.4648 5.07812 54.7266 5.70312 54.7266 6.42969V15.793C54.7266 16.5195 54.4648 17.1445 53.9414 17.668C53.4258 18.1836 52.8008 18.4414 52.0664 18.4414C51.3398 18.4414 50.7148 18.1836 50.1914 17.668C49.6758 17.1445 49.418 16.5195 49.418 15.793V6.42969C49.418 5.70312 49.6758 5.07812 50.1914 4.55469ZM58.6172 5.85547C58.5547 5.74609 58.3633 5.69141 58.043 5.69141C57.8633 5.69141 57.6992 5.75391 57.5508 5.87891C57.3945 6.01172 57.3164 6.16406 57.3164 6.33594V18.1719H55.3242V4.03906H57.293V4.49609C57.2852 4.49609 57.2891 4.48828 57.3047 4.47266C57.3203 4.45703 57.3398 4.4375 57.3633 4.41406C57.4414 4.35156 57.5273 4.28906 57.6211 4.22656C57.9258 4.04688 58.2578 3.94531 58.6172 3.92188V5.85547ZM61.1836 4.34375L61.1953 4.33203C61.2109 4.31641 61.2344 4.29688 61.2656 4.27344C61.3516 4.20312 61.4453 4.13672 61.5469 4.07422C61.8828 3.87891 62.25 3.78125 62.6484 3.78125C63.8984 3.78125 64.5234 4.66797 64.5234 6.44141V18.1719H62.5195V6.20703C62.5195 6.02734 62.457 5.87109 62.332 5.73828C62.1992 5.61328 62.043 5.55078 61.8633 5.55078C61.6836 5.55078 61.5312 5.61328 61.4062 5.73828C61.2734 5.87109 61.207 6.02734 61.207 6.20703V18.1719H59.2148V4.03906H61.1836V4.34375ZM68.2734 16.4375C68.3359 16.3594 68.3789 16.2734 68.4023 16.1797C68.418 16.125 68.4258 16.0742 68.4258 16.0273V10.3789L68.3086 10.4492L68.1797 10.5195C67.6953 10.7852 67.375 11.1172 67.2188 11.5156C67.1328 11.7109 67.0977 11.8828 67.1133 12.0312V16.0273C67.1133 16.207 67.1797 16.3594 67.3125 16.4844C67.4375 16.6094 67.5898 16.6719 67.7695 16.6719L67.8984 16.6602L67.9336 16.6484L68.0039 16.625L68.0625 16.6133L68.1094 16.5781L68.1562 16.543L68.2031 16.5078L68.25 16.4609L68.2734 16.4375ZM65.8945 4.55469C66.418 4.03906 67.043 3.78125 67.7695 3.78125C68.5039 3.78125 69.1289 4.03906 69.6445 4.55469C70.168 5.07812 70.4297 5.70312 70.4297 6.42969V18.1719H68.918C68.5508 18.3516 68.168 18.4414 67.7695 18.4414C67.3633 18.4414 66.9766 18.3516 66.6094 18.1719C66.1641 17.9531 65.8047 17.6328 65.5312 17.2109C65.2578 16.7812 65.1211 16.3086 65.1211 15.793V11.5859C65.1211 11.4609 65.1328 11.3281 65.1562 11.1875C65.25 10.6172 65.5391 10.0977 66.0234 9.62891C66.2031 9.45703 66.4062 9.29297 66.6328 9.13672C66.7188 9.07422 66.8906 8.96484 67.1484 8.80859L68.4258 8.08203V6.19531C68.4258 6.01562 68.3633 5.86328 68.2383 5.73828C68.1055 5.61328 67.9492 5.55078 67.7695 5.55078C67.5898 5.55078 67.4375 5.61328 67.3125 5.73828C67.1797 5.86328 67.1133 6.01562 67.1133 6.19531V8.42188H65.1211V6.42969C65.1211 5.70312 65.3789 5.07812 65.8945 4.55469ZM71.8008 4.58984C72.3242 4.06641 72.9492 3.80469 73.6758 3.80469C74.4102 3.80469 75.0352 4.06641 75.5508 4.58984C76.0742 5.10547 76.3359 5.73047 76.3359 6.46484V9.23047H74.332V6.23047C74.332 6.05078 74.2695 5.89453 74.1445 5.76172C74.0117 5.63672 73.8555 5.57422 73.6758 5.57422C73.4961 5.57422 73.3438 5.63672 73.2188 5.76172C73.0938 5.89453 73.0312 6.05078 73.0312 6.23047V9.32422C73.0312 9.49609 73.082 9.64453 73.1836 9.76953C73.3008 9.90234 73.4453 9.96875 73.6172 9.96875H73.9922C75.0078 9.96875 75.7031 10.4414 76.0781 11.3867C76.1953 11.6836 76.2734 12.0117 76.3125 12.3711C76.3203 12.4805 76.3281 12.5859 76.3359 12.6875C76.3359 12.7188 76.3359 12.75 76.3359 12.7812V16.0273V16.0391C76.2734 16.7188 75.9883 17.2891 75.4805 17.75C74.9727 18.2109 74.3711 18.4414 73.6758 18.4414C72.9883 18.4414 72.3906 18.2109 71.8828 17.75C71.375 17.2891 71.0898 16.7227 71.0273 16.0508V13.0273H73.0312V16.0273C73.0312 16.207 73.0938 16.3594 73.2188 16.4844C73.3438 16.6094 73.4961 16.6719 73.6758 16.6719C73.8555 16.6719 74.0117 16.6094 74.1445 16.4844C74.2695 16.3594 74.332 16.207 74.332 16.0273V12.8164C74.332 12.3867 74.1367 12.1719 73.7461 12.1719H73.6172C72.8672 12.1719 72.2305 11.8789 71.707 11.293C71.2539 10.7852 71.0273 10.1953 71.0273 9.52344V6.46484C71.0273 5.73047 71.2852 5.10547 71.8008 4.58984Z" fill="#000801"/>
</svg>
