<svg width="79" height="20" viewBox="0 0 79 20" fill="none" xmlns="http://www.w3.org/2000/svg">
<path d="M3.38672 16.3477V3.96094C3.38672 3.60938 3.26953 3.36719 3.03516 3.23438C2.91797 3.17188 2.80078 3.14453 2.68359 3.15234H2.26172V17.1562H2.68359C2.80078 17.1641 2.91797 17.1367 3.03516 17.0742C3.26953 16.9414 3.38672 16.6992 3.38672 16.3477ZM5.39062 3.65625L5.37891 16.6523C5.37891 16.8711 5.375 17.0586 5.36719 17.2148C5.34375 17.6289 5.28906 17.9609 5.20312 18.2109C4.97656 18.8516 4.46484 19.1719 3.66797 19.1719H0.292969V1.11328H3.72656C4.51562 1.11328 5.01562 1.4375 5.22656 2.08594C5.3125 2.33594 5.36328 2.66797 5.37891 3.08203C5.38672 3.23828 5.39062 3.42969 5.39062 3.65625ZM8.07422 15.4336H9.09375L8.57812 10.1367L8.07422 15.4336ZM9.5625 19.1719L9.33984 17.3906H7.82812L7.60547 19.1719H5.63672L7.60547 1.11328H9.5625L11.5312 19.1719H9.5625ZM15.3984 1.11328H17.3672V19.1719H15.3984L14.0977 11.2617V19.1719H12.1289V1.11328H14.0977L15.3984 8.95312V1.11328ZM19.9336 19.1719H17.9648V1.11328H19.9336V19.1719ZM24.4453 3.08203H22.4883V9.16406H24.4453V11.1328H22.4883V17.2031H24.4453V19.1719H20.5195V1.11328H24.4453V3.08203ZM27.0117 17.2031H28.9688V19.1719H25.043V1.11328H27.0117V17.2031ZM37.1602 1.11328H39.1523V19.1719H37.1836V11.1094L36.1992 19.1719H34.6641L33.7148 11.2617V19.1719H31.7461V1.11328H33.7148L35.4375 10.5469L37.1602 1.11328ZM41.707 19.1719H39.7383V17.2031H41.707V19.1719ZM47.5664 16.3477V3.96094C47.5664 3.60938 47.4492 3.36719 47.2148 3.23438C47.0977 3.17188 46.9805 3.14453 46.8633 3.15234H46.4414V17.1562H46.8633C46.9805 17.1641 47.0977 17.1367 47.2148 17.0742C47.4492 16.9414 47.5664 16.6992 47.5664 16.3477ZM49.5703 3.65625L49.5586 16.6523C49.5586 16.8711 49.5547 17.0586 49.5469 17.2148C49.5234 17.6289 49.4688 17.9609 49.3828 18.2109C49.1562 18.8516 48.6445 19.1719 47.8477 19.1719H44.4727V1.11328H47.9062C48.6953 1.11328 49.1953 1.4375 49.4062 2.08594C49.4922 2.33594 49.543 2.66797 49.5586 3.08203C49.5664 3.23828 49.5703 3.42969 49.5703 3.65625ZM52.1602 3.26953V17.0273C52.1602 17.207 52.2266 17.3594 52.3594 17.4844C52.4844 17.6094 52.6367 17.6719 52.8164 17.6719C52.9961 17.6719 53.1523 17.6094 53.2852 17.4844C53.4102 17.3594 53.4727 17.207 53.4727 17.0273V3.26953C53.4727 3.08984 53.4102 2.9375 53.2852 2.8125C53.1523 2.67969 52.9961 2.61328 52.8164 2.61328C52.6367 2.61328 52.4844 2.67969 52.3594 2.8125C52.2266 2.9375 52.1602 3.08984 52.1602 3.26953ZM50.9414 1.62891C51.4648 1.11328 52.0898 0.855469 52.8164 0.855469C53.5508 0.855469 54.1758 1.11328 54.6914 1.62891C55.2148 2.15234 55.4766 2.77734 55.4766 3.50391V16.793C55.4766 17.5195 55.2148 18.1445 54.6914 18.668C54.1758 19.1836 53.5508 19.4414 52.8164 19.4414C52.0898 19.4414 51.4648 19.1836 50.9414 18.668C50.4258 18.1445 50.168 17.5195 50.168 16.793V3.50391C50.168 2.77734 50.4258 2.15234 50.9414 1.62891ZM58.043 3.12891V10.5234H58.4766C58.5938 10.5312 58.707 10.5039 58.8164 10.4414C59.043 10.3164 59.1562 10.0742 59.1562 9.71484V3.9375C59.1562 3.58594 59.043 3.34375 58.8164 3.21094C58.707 3.14844 58.5938 3.12109 58.4766 3.12891H58.043ZM56.0742 1.11328H59.4375C60.2031 1.11328 60.6953 1.43359 60.9141 2.07422C61 2.33203 61.0547 2.66406 61.0781 3.07031C61.0859 3.22656 61.0898 3.41406 61.0898 3.63281V9.43359C61.0898 9.70703 61.0391 10.0195 60.9375 10.3711C60.8047 10.793 60.625 11.1641 60.3984 11.4844C60.6719 11.7266 60.8477 12.1172 60.9258 12.6562C60.957 12.8594 60.9766 13.1133 60.9844 13.418V13.8398V19.1719H59.0508V13.3945C59.0508 13.1992 59.0156 13.0352 58.9453 12.9023C58.8906 12.8008 58.8125 12.7227 58.7109 12.668C58.5938 12.6055 58.4805 12.5781 58.3711 12.5859H58.043V19.1719H56.0742V1.11328ZM64.9453 1.11328H66.9141V19.1719H64.9453L63.6445 11.2617V19.1719H61.6758V1.11328H63.6445L64.9453 8.95312V1.11328ZM69.9492 15.4336H70.9688L70.4531 10.1367L69.9492 15.4336ZM71.4375 19.1719L71.2148 17.3906H69.7031L69.4805 19.1719H67.5117L69.4805 1.11328H71.4375L73.4062 19.1719H71.4375ZM74.4258 1.66406C74.9492 1.14062 75.5742 0.878906 76.3008 0.878906C77.0352 0.878906 77.6602 1.14062 78.1758 1.66406C78.6992 2.17969 78.9609 2.80078 78.9609 3.52734V8.27344H76.957V3.30469C76.957 3.11719 76.8945 2.96094 76.7695 2.83594C76.6367 2.71094 76.4805 2.64844 76.3008 2.64844C76.1211 2.64844 75.9688 2.71094 75.8438 2.83594C75.7188 2.96094 75.6562 3.11719 75.6562 3.30469V8.35547C75.6562 8.53516 75.707 8.6875 75.8086 8.8125C75.9258 8.9375 76.0703 9 76.2422 9H76.6172C77.1719 9 77.6367 9.14844 78.0117 9.44531C78.3086 9.6875 78.5391 10.0156 78.7031 10.4297C78.8906 10.8984 78.9766 11.3711 78.9609 11.8477V17.0273V17.0391C78.8984 17.7188 78.6133 18.2891 78.1055 18.75C77.5977 19.2109 76.9961 19.4414 76.3008 19.4414C75.6133 19.4414 75.0156 19.2109 74.5078 18.75C74 18.2891 73.7148 17.7227 73.6523 17.0508V12.0703H75.6562V17.0273C75.6562 17.207 75.7188 17.3594 75.8438 17.4844C75.9688 17.6094 76.1211 17.6719 76.3008 17.6719C76.4805 17.6719 76.6367 17.6094 76.7695 17.4844C76.8945 17.3594 76.957 17.207 76.957 17.0273V11.8594C76.957 11.4219 76.7617 11.2031 76.3711 11.2031H76.2422C75.4922 11.2031 74.8555 10.9102 74.332 10.3242C73.8789 9.81641 73.6523 9.22656 73.6523 8.55469V3.52734C73.6523 2.80078 73.9102 2.17969 74.4258 1.66406Z" fill="#000801"/>
</svg>
